# Tiled2Unity generated file. Do not modify by hand.
# Wavefront file for 'MYMAP_mesh_0002.obj'

# Vertices (Count = 772)
v 0 -1 0
v -1 -1 0
v -1 0 0
v 0 0 0
v -1 -1 0
v -2 -1 0
v -2 0 0
v -1 0 0
v -2 -1 0
v -3 -1 0
v -3 0 0
v -2 0 0
v -3 -1 0
v -4 -1 0
v -4 0 0
v -3 0 0
v -4 -1 0
v -5 -1 0
v -5 0 0
v -4 0 0
v -5 -1 0
v -6 -1 0
v -6 0 0
v -5 0 0
v -6 -1 0
v -7 -1 0
v -7 0 0
v -6 0 0
v -7 -1 0
v -8 -1 0
v -8 0 0
v -7 0 0
v -8 -1 0
v -9 -1 0
v -9 0 0
v -8 0 0
v -9 -1 0
v -10 -1 0
v -10 0 0
v -9 0 0
v -10 -1 0
v -11 -1 0
v -11 0 0
v -10 0 0
v -11 -1 0
v -12 -1 0
v -12 0 0
v -11 0 0
v -12 -1 0
v -13 -1 0
v -13 0 0
v -12 0 0
v -13 -1 0
v -14 -1 0
v -14 0 0
v -13 0 0
v -14 -1 0
v -15 -1 0
v -15 0 0
v -14 0 0
v -15 -1 0
v -16 -1 0
v -16 0 0
v -15 0 0
v -16 -1 0
v -17 -1 0
v -17 0 0
v -16 0 0
v -17 -1 0
v -18 -1 0
v -18 0 0
v -17 0 0
v -18 -1 0
v -19 -1 0
v -19 0 0
v -18 0 0
v -19 -1 0
v -20 -1 0
v -20 0 0
v -19 0 0
v -20 -1 0
v -21 -1 0
v -21 0 0
v -20 0 0
v -21 -1 0
v -22 -1 0
v -22 0 0
v -21 0 0
v -22 -1 0
v -23 -1 0
v -23 0 0
v -22 0 0
v -23 -1 0
v -24 -1 0
v -24 0 0
v -23 0 0
v 0 -2 0
v -1 -2 0
v -1 -1 0
v 0 -1 0
v -2 -2 0
v -3 -2 0
v -3 -1 0
v -2 -1 0
v -5 -2 0
v -6 -2 0
v -6 -1 0
v -5 -1 0
v -23 -2 0
v -24 -2 0
v -24 -1 0
v -23 -1 0
v 0 -3 0
v -1 -3 0
v -1 -2 0
v 0 -2 0
v -2 -3 0
v -3 -3 0
v -3 -2 0
v -2 -2 0
v -5 -3 0
v -6 -3 0
v -6 -2 0
v -5 -2 0
v -20 -3 0
v -21 -3 0
v -21 -2 0
v -20 -2 0
v -23 -3 0
v -24 -3 0
v -24 -2 0
v -23 -2 0
v 0 -4 0
v -1 -4 0
v -1 -3 0
v 0 -3 0
v -2 -4 0
v -3 -4 0
v -3 -3 0
v -2 -3 0
v -5 -4 0
v -6 -4 0
v -6 -3 0
v -5 -3 0
v -18 -4 0
v -19 -4 0
v -19 -3 0
v -18 -3 0
v -19 -4 0
v -20 -4 0
v -20 -3 0
v -19 -3 0
v -20 -4 0
v -21 -4 0
v -21 -3 0
v -20 -3 0
v -21 -4 0
v -22 -4 0
v -22 -3 0
v -21 -3 0
v -23 -4 0
v -24 -4 0
v -24 -3 0
v -23 -3 0
v 0 -5 0
v -1 -5 0
v -1 -4 0
v 0 -4 0
v -2 -5 0
v -3 -5 0
v -3 -4 0
v -2 -4 0
v -4 -5 0
v -5 -5 0
v -5 -4 0
v -4 -4 0
v -5 -5 0
v -6 -5 0
v -6 -4 0
v -5 -4 0
v -18 -5 0
v -19 -5 0
v -19 -4 0
v -18 -4 0
v -21 -5 0
v -22 -5 0
v -22 -4 0
v -21 -4 0
v -23 -5 0
v -24 -5 0
v -24 -4 0
v -23 -4 0
v 0 -6 0
v -1 -6 0
v -1 -5 0
v 0 -5 0
v -2 -6 0
v -3 -6 0
v -3 -5 0
v -2 -5 0
v -18 -6 0
v -19 -6 0
v -19 -5 0
v -18 -5 0
v -21 -6 0
v -22 -6 0
v -22 -5 0
v -21 -5 0
v -23 -6 0
v -24 -6 0
v -24 -5 0
v -23 -5 0
v 0 -7 0
v -1 -7 0
v -1 -6 0
v 0 -6 0
v -2 -7 0
v -3 -7 0
v -3 -6 0
v -2 -6 0
v -5 -7 0
v -6 -7 0
v -6 -6 0
v -5 -6 0
v -6 -7 0
v -7 -7 0
v -7 -6 0
v -6 -6 0
v -12 -7 0
v -13 -7 0
v -13 -6 0
v -12 -6 0
v -13 -7 0
v -14 -7 0
v -14 -6 0
v -13 -6 0
v -14 -7 0
v -15 -7 0
v -15 -6 0
v -14 -6 0
v -15 -7 0
v -16 -7 0
v -16 -6 0
v -15 -6 0
v -18 -7 0
v -19 -7 0
v -19 -6 0
v -18 -6 0
v -19 -7 0
v -20 -7 0
v -20 -6 0
v -19 -6 0
v -21 -7 0
v -22 -7 0
v -22 -6 0
v -21 -6 0
v -23 -7 0
v -24 -7 0
v -24 -6 0
v -23 -6 0
v 0 -8 0
v -1 -8 0
v -1 -7 0
v 0 -7 0
v -5 -8 0
v -6 -8 0
v -6 -7 0
v -5 -7 0
v -6 -8 0
v -7 -8 0
v -7 -7 0
v -6 -7 0
v -21 -8 0
v -22 -8 0
v -22 -7 0
v -21 -7 0
v -23 -8 0
v -24 -8 0
v -24 -7 0
v -23 -7 0
v 0 -9 0
v -1 -9 0
v -1 -8 0
v 0 -8 0
v -1 -9 0
v -2 -9 0
v -2 -8 0
v -1 -8 0
v -2 -9 0
v -3 -9 0
v -3 -8 0
v -2 -8 0
v -3 -9 0
v -4 -9 0
v -4 -8 0
v -3 -8 0
v -4 -9 0
v -5 -9 0
v -5 -8 0
v -4 -8 0
v -5 -9 0
v -6 -9 0
v -6 -8 0
v -5 -8 0
v -6 -9 0
v -7 -9 0
v -7 -8 0
v -6 -8 0
v -17 -9 0
v -18 -9 0
v -18 -8 0
v -17 -8 0
v -23 -9 0
v -24 -9 0
v -24 -8 0
v -23 -8 0
v 0 -10 0
v -1 -10 0
v -1 -9 0
v 0 -9 0
v -5 -10 0
v -6 -10 0
v -6 -9 0
v -5 -9 0
v -17 -10 0
v -18 -10 0
v -18 -9 0
v -17 -9 0
v -23 -10 0
v -24 -10 0
v -24 -9 0
v -23 -9 0
v 0 -11 0
v -1 -11 0
v -1 -10 0
v 0 -10 0
v -2 -11 0
v -3 -11 0
v -3 -10 0
v -2 -10 0
v -3 -11 0
v -4 -11 0
v -4 -10 0
v -3 -10 0
v -5 -11 0
v -6 -11 0
v -6 -10 0
v -5 -10 0
v -17 -11 0
v -18 -11 0
v -18 -10 0
v -17 -10 0
v -18 -11 0
v -19 -11 0
v -19 -10 0
v -18 -10 0
v -21 -11 0
v -22 -11 0
v -22 -10 0
v -21 -10 0
v -23 -11 0
v -24 -11 0
v -24 -10 0
v -23 -10 0
v 0 -12 0
v -1 -12 0
v -1 -11 0
v 0 -11 0
v -2 -12 0
v -3 -12 0
v -3 -11 0
v -2 -11 0
v -3 -12 0
v -4 -12 0
v -4 -11 0
v -3 -11 0
v -5 -12 0
v -6 -12 0
v -6 -11 0
v -5 -11 0
v -21 -12 0
v -22 -12 0
v -22 -11 0
v -21 -11 0
v -23 -12 0
v -24 -12 0
v -24 -11 0
v -23 -11 0
v 0 -13 0
v -1 -13 0
v -1 -12 0
v 0 -12 0
v -21 -13 0
v -22 -13 0
v -22 -12 0
v -21 -12 0
v -23 -13 0
v -24 -13 0
v -24 -12 0
v -23 -12 0
v 0 -14 0
v -1 -14 0
v -1 -13 0
v 0 -13 0
v -1 -14 0
v -2 -14 0
v -2 -13 0
v -1 -13 0
v -2 -14 0
v -3 -14 0
v -3 -13 0
v -2 -13 0
v -3 -14 0
v -4 -14 0
v -4 -13 0
v -3 -13 0
v -21 -14 0
v -22 -14 0
v -22 -13 0
v -21 -13 0
v -23 -14 0
v -24 -14 0
v -24 -13 0
v -23 -13 0
v 0 -15 0
v -1 -15 0
v -1 -14 0
v 0 -14 0
v -12 -15 0
v -13 -15 0
v -13 -14 0
v -12 -14 0
v -22 -15 0
v -23 -15 0
v -23 -14 0
v -22 -14 0
v -23 -15 0
v -24 -15 0
v -24 -14 0
v -23 -14 0
v 0 -16 0
v -1 -16 0
v -1 -15 0
v 0 -15 0
v -12 -16 0
v -13 -16 0
v -13 -15 0
v -12 -15 0
v -19 -16 0
v -20 -16 0
v -20 -15 0
v -19 -15 0
v -23 -16 0
v -24 -16 0
v -24 -15 0
v -23 -15 0
v 0 -17 0
v -1 -17 0
v -1 -16 0
v 0 -16 0
v -12 -17 0
v -13 -17 0
v -13 -16 0
v -12 -16 0
v -19 -17 0
v -20 -17 0
v -20 -16 0
v -19 -16 0
v -23 -17 0
v -24 -17 0
v -24 -16 0
v -23 -16 0
v 0 -18 0
v -1 -18 0
v -1 -17 0
v 0 -17 0
v -8 -18 0
v -9 -18 0
v -9 -17 0
v -8 -17 0
v -12 -18 0
v -13 -18 0
v -13 -17 0
v -12 -17 0
v -13 -18 0
v -14 -18 0
v -14 -17 0
v -13 -17 0
v -14 -18 0
v -15 -18 0
v -15 -17 0
v -14 -17 0
v -16 -18 0
v -17 -18 0
v -17 -17 0
v -16 -17 0
v -22 -18 0
v -23 -18 0
v -23 -17 0
v -22 -17 0
v -23 -18 0
v -24 -18 0
v -24 -17 0
v -23 -17 0
v 0 -19 0
v -1 -19 0
v -1 -18 0
v 0 -18 0
v -4 -19 0
v -5 -19 0
v -5 -18 0
v -4 -18 0
v -5 -19 0
v -6 -19 0
v -6 -18 0
v -5 -18 0
v -6 -19 0
v -7 -19 0
v -7 -18 0
v -6 -18 0
v -7 -19 0
v -8 -19 0
v -8 -18 0
v -7 -18 0
v -8 -19 0
v -9 -19 0
v -9 -18 0
v -8 -18 0
v -9 -19 0
v -10 -19 0
v -10 -18 0
v -9 -18 0
v -10 -19 0
v -11 -19 0
v -11 -18 0
v -10 -18 0
v -11 -19 0
v -12 -19 0
v -12 -18 0
v -11 -18 0
v -12 -19 0
v -13 -19 0
v -13 -18 0
v -12 -18 0
v -16 -19 0
v -17 -19 0
v -17 -18 0
v -16 -18 0
v -22 -19 0
v -23 -19 0
v -23 -18 0
v -22 -18 0
v -23 -19 0
v -24 -19 0
v -24 -18 0
v -23 -18 0
v 0 -20 0
v -1 -20 0
v -1 -19 0
v 0 -19 0
v -2 -20 0
v -3 -20 0
v -3 -19 0
v -2 -19 0
v -8 -20 0
v -9 -20 0
v -9 -19 0
v -8 -19 0
v -12 -20 0
v -13 -20 0
v -13 -19 0
v -12 -19 0
v -16 -20 0
v -17 -20 0
v -17 -19 0
v -16 -19 0
v -23 -20 0
v -24 -20 0
v -24 -19 0
v -23 -19 0
v 0 -21 0
v -1 -21 0
v -1 -20 0
v 0 -20 0
v -2 -21 0
v -3 -21 0
v -3 -20 0
v -2 -20 0
v -3 -21 0
v -4 -21 0
v -4 -20 0
v -3 -20 0
v -4 -21 0
v -5 -21 0
v -5 -20 0
v -4 -20 0
v -5 -21 0
v -6 -21 0
v -6 -20 0
v -5 -20 0
v -6 -21 0
v -7 -21 0
v -7 -20 0
v -6 -20 0
v -8 -21 0
v -9 -21 0
v -9 -20 0
v -8 -20 0
v -12 -21 0
v -13 -21 0
v -13 -20 0
v -12 -20 0
v -15 -21 0
v -16 -21 0
v -16 -20 0
v -15 -20 0
v -23 -21 0
v -24 -21 0
v -24 -20 0
v -23 -20 0
v 0 -22 0
v -1 -22 0
v -1 -21 0
v 0 -21 0
v -6 -22 0
v -7 -22 0
v -7 -21 0
v -6 -21 0
v -12 -22 0
v -13 -22 0
v -13 -21 0
v -12 -21 0
v -15 -22 0
v -16 -22 0
v -16 -21 0
v -15 -21 0
v -16 -22 0
v -17 -22 0
v -17 -21 0
v -16 -21 0
v -23 -22 0
v -24 -22 0
v -24 -21 0
v -23 -21 0
v 0 -23 0
v -1 -23 0
v -1 -22 0
v 0 -22 0
v -8 -23 0
v -9 -23 0
v -9 -22 0
v -8 -22 0
v -9 -23 0
v -10 -23 0
v -10 -22 0
v -9 -22 0
v -10 -23 0
v -11 -23 0
v -11 -22 0
v -10 -22 0
v -11 -23 0
v -12 -23 0
v -12 -22 0
v -11 -22 0
v -12 -23 0
v -13 -23 0
v -13 -22 0
v -12 -22 0
v -13 -23 0
v -14 -23 0
v -14 -22 0
v -13 -22 0
v -23 -23 0
v -24 -23 0
v -24 -22 0
v -23 -22 0
v 0 -24 0
v -1 -24 0
v -1 -23 0
v 0 -23 0
v -1 -24 0
v -2 -24 0
v -2 -23 0
v -1 -23 0
v -2 -24 0
v -3 -24 0
v -3 -23 0
v -2 -23 0
v -3 -24 0
v -4 -24 0
v -4 -23 0
v -3 -23 0
v -4 -24 0
v -5 -24 0
v -5 -23 0
v -4 -23 0
v -5 -24 0
v -6 -24 0
v -6 -23 0
v -5 -23 0
v -6 -24 0
v -7 -24 0
v -7 -23 0
v -6 -23 0
v -7 -24 0
v -8 -24 0
v -8 -23 0
v -7 -23 0
v -8 -24 0
v -9 -24 0
v -9 -23 0
v -8 -23 0
v -9 -24 0
v -10 -24 0
v -10 -23 0
v -9 -23 0
v -10 -24 0
v -11 -24 0
v -11 -23 0
v -10 -23 0
v -11 -24 0
v -12 -24 0
v -12 -23 0
v -11 -23 0
v -12 -24 0
v -13 -24 0
v -13 -23 0
v -12 -23 0
v -13 -24 0
v -14 -24 0
v -14 -23 0
v -13 -23 0
v -14 -24 0
v -15 -24 0
v -15 -23 0
v -14 -23 0
v -15 -24 0
v -16 -24 0
v -16 -23 0
v -15 -23 0
v -16 -24 0
v -17 -24 0
v -17 -23 0
v -16 -23 0
v -17 -24 0
v -18 -24 0
v -18 -23 0
v -17 -23 0
v -18 -24 0
v -19 -24 0
v -19 -23 0
v -18 -23 0
v -19 -24 0
v -20 -24 0
v -20 -23 0
v -19 -23 0
v -20 -24 0
v -21 -24 0
v -21 -23 0
v -20 -23 0
v -21 -24 0
v -22 -24 0
v -22 -23 0
v -21 -23 0
v -22 -24 0
v -23 -24 0
v -23 -23 0
v -22 -23 0
v -23 -24 0
v -24 -24 0
v -24 -23 0
v -23 -23 0

# Texture cooridinates (Count = 29)
vt 0.25 0.4210526
vt 0.375 0.4210526
vt 0.375 0.4736842
vt 0.25 0.4736842
vt 0.5 0.4210526
vt 0.5 0.4736842
vt 0.5 0.6842105
vt 0.625 0.6842105
vt 0.625 0.7368421
vt 0.5 0.7368421
vt 0.625 0.4210526
vt 0.625 0.4736842
vt 0.625 0.1052632
vt 0.75 0.1052632
vt 0.75 0.1578947
vt 0.625 0.1578947
vt 0.5 0.2105263
vt 0.625 0.2105263
vt 0.625 0.2631579
vt 0.5 0.2631579
vt 0.75 0.2105263
vt 0.75 0.2631579
vt 0.5 0.1578947
vt 0.125 0.2631579
vt 0.25 0.2631579
vt 0.25 0.3157895
vt 0.125 0.3157895
vt 0.875 0.1578947
vt 0.875 0.2105263

# Normal
vn 0 0 -1

# Mesh description
g MYMAP_mesh_0002

# Faces
f 1/1/1 2/2/1 3/3/1 4/4/1
f 5/1/1 6/2/1 7/3/1 8/4/1
f 9/1/1 10/2/1 11/3/1 12/4/1
f 13/1/1 14/2/1 15/3/1 16/4/1
f 17/1/1 18/2/1 19/3/1 20/4/1
f 21/1/1 22/2/1 23/3/1 24/4/1
f 25/1/1 26/2/1 27/3/1 28/4/1
f 29/1/1 30/2/1 31/3/1 32/4/1
f 33/1/1 34/2/1 35/3/1 36/4/1
f 37/1/1 38/2/1 39/3/1 40/4/1
f 41/1/1 42/2/1 43/3/1 44/4/1
f 45/1/1 46/2/1 47/3/1 48/4/1
f 49/1/1 50/2/1 51/3/1 52/4/1
f 53/1/1 54/2/1 55/3/1 56/4/1
f 57/1/1 58/2/1 59/3/1 60/4/1
f 61/1/1 62/2/1 63/3/1 64/4/1
f 65/1/1 66/2/1 67/3/1 68/4/1
f 69/1/1 70/2/1 71/3/1 72/4/1
f 73/1/1 74/2/1 75/3/1 76/4/1
f 77/1/1 78/2/1 79/3/1 80/4/1
f 81/1/1 82/2/1 83/3/1 84/4/1
f 85/1/1 86/2/1 87/3/1 88/4/1
f 89/1/1 90/2/1 91/3/1 92/4/1
f 93/2/1 94/5/1 95/6/1 96/3/1
f 97/7/1 98/8/1 99/9/1 100/10/1
f 101/2/1 102/5/1 103/6/1 104/3/1
f 105/2/1 106/5/1 107/6/1 108/3/1
f 109/2/1 110/5/1 111/6/1 112/3/1
f 113/2/1 114/5/1 115/6/1 116/3/1
f 117/2/1 118/5/1 119/6/1 120/3/1
f 121/2/1 122/5/1 123/6/1 124/3/1
f 125/2/1 126/5/1 127/6/1 128/3/1
f 129/2/1 130/5/1 131/6/1 132/3/1
f 133/2/1 134/5/1 135/6/1 136/3/1
f 137/2/1 138/5/1 139/6/1 140/3/1
f 141/2/1 142/5/1 143/6/1 144/3/1
f 145/5/1 146/11/1 147/12/1 148/6/1
f 149/2/1 150/5/1 151/6/1 152/3/1
f 153/2/1 154/5/1 155/6/1 156/3/1
f 157/2/1 158/5/1 159/6/1 160/3/1
f 161/2/1 162/5/1 163/6/1 164/3/1
f 165/2/1 166/5/1 167/6/1 168/3/1
f 169/2/1 170/5/1 171/6/1 172/3/1
f 173/2/1 174/5/1 175/6/1 176/3/1
f 177/2/1 178/5/1 179/6/1 180/3/1
f 181/5/1 182/11/1 183/12/1 184/6/1
f 185/2/1 186/5/1 187/6/1 188/3/1
f 189/2/1 190/5/1 191/6/1 192/3/1
f 193/2/1 194/5/1 195/6/1 196/3/1
f 197/2/1 198/5/1 199/6/1 200/3/1
f 201/5/1 202/11/1 203/12/1 204/6/1
f 205/2/1 206/5/1 207/6/1 208/3/1
f 209/13/1 210/14/1 211/15/1 212/16/1
f 213/2/1 214/5/1 215/6/1 216/3/1
f 217/2/1 218/5/1 219/6/1 220/3/1
f 221/17/1 222/18/1 223/19/1 224/20/1
f 225/18/1 226/21/1 227/22/1 228/19/1
f 229/5/1 230/11/1 231/12/1 232/6/1
f 233/2/1 234/5/1 235/6/1 236/3/1
f 237/2/1 238/5/1 239/6/1 240/3/1
f 241/2/1 242/5/1 243/6/1 244/3/1
f 245/5/1 246/11/1 247/12/1 248/6/1
f 249/2/1 250/5/1 251/6/1 252/3/1
f 253/2/1 254/5/1 255/6/1 256/3/1
f 257/13/1 258/14/1 259/15/1 260/16/1
f 261/2/1 262/5/1 263/6/1 264/3/1
f 265/23/1 266/16/1 267/18/1 268/17/1
f 269/16/1 270/15/1 271/21/1 272/18/1
f 273/2/1 274/5/1 275/6/1 276/3/1
f 277/13/1 278/14/1 279/15/1 280/16/1
f 281/2/1 282/5/1 283/6/1 284/3/1
f 285/2/1 286/5/1 287/6/1 288/3/1
f 289/2/1 290/5/1 291/6/1 292/3/1
f 293/2/1 294/5/1 295/6/1 296/3/1
f 297/2/1 298/5/1 299/6/1 300/3/1
f 301/2/1 302/5/1 303/6/1 304/3/1
f 305/2/1 306/5/1 307/6/1 308/3/1
f 309/2/1 310/5/1 311/6/1 312/3/1
f 313/13/1 314/14/1 315/15/1 316/16/1
f 317/2/1 318/5/1 319/6/1 320/3/1
f 321/2/1 322/5/1 323/6/1 324/3/1
f 325/2/1 326/5/1 327/6/1 328/3/1
f 329/13/1 330/14/1 331/15/1 332/16/1
f 333/13/1 334/14/1 335/15/1 336/16/1
f 337/5/1 338/11/1 339/12/1 340/6/1
f 341/5/1 342/11/1 343/12/1 344/6/1
f 345/2/1 346/5/1 347/6/1 348/3/1
f 349/2/1 350/5/1 351/6/1 352/3/1
f 353/2/1 354/5/1 355/6/1 356/3/1
f 357/2/1 358/5/1 359/6/1 360/3/1
f 361/13/1 362/14/1 363/15/1 364/16/1
f 365/13/1 366/14/1 367/15/1 368/16/1
f 369/5/1 370/11/1 371/12/1 372/6/1
f 373/5/1 374/11/1 375/12/1 376/6/1
f 377/2/1 378/5/1 379/6/1 380/3/1
f 381/2/1 382/5/1 383/6/1 384/3/1
f 385/13/1 386/14/1 387/15/1 388/16/1
f 389/13/1 390/14/1 391/15/1 392/16/1
f 393/2/1 394/5/1 395/6/1 396/3/1
f 397/13/1 398/14/1 399/15/1 400/16/1
f 401/13/1 402/14/1 403/15/1 404/16/1
f 405/2/1 406/5/1 407/6/1 408/3/1
f 409/2/1 410/5/1 411/6/1 412/3/1
f 413/2/1 414/5/1 415/6/1 416/3/1
f 417/2/1 418/5/1 419/6/1 420/3/1
f 421/13/1 422/14/1 423/15/1 424/16/1
f 425/2/1 426/5/1 427/6/1 428/3/1
f 429/2/1 430/5/1 431/6/1 432/3/1
f 433/2/1 434/5/1 435/6/1 436/3/1
f 437/2/1 438/5/1 439/6/1 440/3/1
f 441/2/1 442/5/1 443/6/1 444/3/1
f 445/2/1 446/5/1 447/6/1 448/3/1
f 449/5/1 450/11/1 451/12/1 452/6/1
f 453/2/1 454/5/1 455/6/1 456/3/1
f 457/2/1 458/5/1 459/6/1 460/3/1
f 461/2/1 462/5/1 463/6/1 464/3/1
f 465/5/1 466/11/1 467/12/1 468/6/1
f 469/2/1 470/5/1 471/6/1 472/3/1
f 473/2/1 474/5/1 475/6/1 476/3/1
f 477/5/1 478/11/1 479/12/1 480/6/1
f 481/5/1 482/11/1 483/12/1 484/6/1
f 485/5/1 486/11/1 487/12/1 488/6/1
f 489/2/1 490/5/1 491/6/1 492/3/1
f 493/2/1 494/5/1 495/6/1 496/3/1
f 497/5/1 498/11/1 499/12/1 500/6/1
f 501/2/1 502/5/1 503/6/1 504/3/1
f 505/2/1 506/5/1 507/6/1 508/3/1
f 509/5/1 510/11/1 511/12/1 512/6/1
f 513/5/1 514/11/1 515/12/1 516/6/1
f 517/5/1 518/11/1 519/12/1 520/6/1
f 521/5/1 522/11/1 523/12/1 524/6/1
f 525/5/1 526/11/1 527/12/1 528/6/1
f 529/5/1 530/11/1 531/12/1 532/6/1
f 533/5/1 534/11/1 535/12/1 536/6/1
f 537/2/1 538/5/1 539/6/1 540/3/1
f 541/5/1 542/11/1 543/12/1 544/6/1
f 545/2/1 546/5/1 547/6/1 548/3/1
f 549/5/1 550/11/1 551/12/1 552/6/1
f 553/2/1 554/5/1 555/6/1 556/3/1
f 557/2/1 558/5/1 559/6/1 560/3/1
f 561/5/1 562/11/1 563/12/1 564/6/1
f 565/5/1 566/11/1 567/12/1 568/6/1
f 569/2/1 570/5/1 571/6/1 572/3/1
f 573/2/1 574/5/1 575/6/1 576/3/1
f 577/2/1 578/5/1 579/6/1 580/3/1
f 581/2/1 582/5/1 583/6/1 584/3/1
f 585/5/1 586/11/1 587/12/1 588/6/1
f 589/5/1 590/11/1 591/12/1 592/6/1
f 593/5/1 594/11/1 595/12/1 596/6/1
f 597/5/1 598/11/1 599/12/1 600/6/1
f 601/2/1 602/5/1 603/6/1 604/3/1
f 605/5/1 606/11/1 607/12/1 608/6/1
f 609/2/1 610/5/1 611/6/1 612/3/1
f 613/2/1 614/5/1 615/6/1 616/3/1
f 617/2/1 618/5/1 619/6/1 620/3/1
f 621/2/1 622/5/1 623/6/1 624/3/1
f 625/2/1 626/5/1 627/6/1 628/3/1
f 629/2/1 630/5/1 631/6/1 632/3/1
f 633/2/1 634/5/1 635/6/1 636/3/1
f 637/2/1 638/5/1 639/6/1 640/3/1
f 641/2/1 642/5/1 643/6/1 644/3/1
f 645/2/1 646/5/1 647/6/1 648/3/1
f 649/2/1 650/5/1 651/6/1 652/3/1
f 653/2/1 654/5/1 655/6/1 656/3/1
f 657/2/1 658/5/1 659/6/1 660/3/1
f 661/2/1 662/5/1 663/6/1 664/3/1
f 665/2/1 666/5/1 667/6/1 668/3/1
f 669/2/1 670/5/1 671/6/1 672/3/1
f 673/2/1 674/5/1 675/6/1 676/3/1
f 677/24/1 678/25/1 679/26/1 680/27/1
f 681/24/1 682/25/1 683/26/1 684/27/1
f 685/24/1 686/25/1 687/26/1 688/27/1
f 689/24/1 690/25/1 691/26/1 692/27/1
f 693/24/1 694/25/1 695/26/1 696/27/1
f 697/24/1 698/25/1 699/26/1 700/27/1
f 701/24/1 702/25/1 703/26/1 704/27/1
f 705/15/1 706/28/1 707/29/1 708/21/1
f 709/15/1 710/28/1 711/29/1 712/21/1
f 713/15/1 714/28/1 715/29/1 716/21/1
f 717/15/1 718/28/1 719/29/1 720/21/1
f 721/15/1 722/28/1 723/29/1 724/21/1
f 725/15/1 726/28/1 727/29/1 728/21/1
f 729/15/1 730/28/1 731/29/1 732/21/1
f 733/15/1 734/28/1 735/29/1 736/21/1
f 737/15/1 738/28/1 739/29/1 740/21/1
f 741/15/1 742/28/1 743/29/1 744/21/1
f 745/24/1 746/25/1 747/26/1 748/27/1
f 749/24/1 750/25/1 751/26/1 752/27/1
f 753/24/1 754/25/1 755/26/1 756/27/1
f 757/24/1 758/25/1 759/26/1 760/27/1
f 761/24/1 762/25/1 763/26/1 764/27/1
f 765/24/1 766/25/1 767/26/1 768/27/1
f 769/24/1 770/25/1 771/26/1 772/27/1

